# xmcd
#
# Track frame offsets:
#	187
#	32842
#	58452
#	74990
#	101017
#	119775
#	129925
#	150625
#	175937
#	191530
#	209540
#	261125
#
# Disc length: 3757 seconds
#
# Revision: 1
# Processed by: cddbd v1.5.1PL0 Copyright (c) Steve Scherf et al.
# Submitted via: CDex 1.50Beta5
#
DISCID=bf0eab0c
DTITLE=MotoakiTakenouti - GUNGRIFFON
DYEAR=1900
DGENRE=
TTITLE0=MotoakiTakenouti/DO DR DIE
TTITLE1=STAY ALIVE
TTITLE2=SILENT NIGHT
TTITLE3=MotoakiTakenouti/DELIRHYTHM
TTITLE4=UNDERDOG
TTITLE5=SORITUAL TENSIONS
TTITLE6=RED SIGNAL
TTITLE7=COLLAPSED DISCIPLINE-Type H
TTITLE8=THEME OF GUNGRIFFON
TTITLE9=AFTER CONFLICT
TTITLE10=MotoakiTakenouti/<BONUS TRACKS 1
TTITLE11=MotoakiTakenouti/<BONUS TRACKS 2
EXTD=
EXTT0=
EXTT1=
EXTT2=
EXTT3=
EXTT4=
EXTT5=
EXTT6=
EXTT7=
EXTT8=
EXTT9=
EXTT10=
EXTT11=
PLAYORDER=
